<?xml version="1.0" encoding="UTF-8"?>
<svg width="16px" height="19px" viewBox="0 0 16 19" version="1.1" xmlns="http://www.w3.org/2000/svg" xmlns:xlink="http://www.w3.org/1999/xlink">
    <!-- Generator: Sketch 46.2 (44496) - http://www.bohemiancoding.com/sketch -->
    <title>Page 1</title>
    <desc>Created with Sketch.</desc>
    <defs></defs>
    <g id="Symbols" stroke="none" stroke-width="1" fill="none" fill-rule="evenodd" stroke-linecap="round" stroke-linejoin="round">
        <g id="ICO/Notifs" transform="translate(-2.000000, -2.000000)">
            <g id="Group" transform="translate(2.000000, 2.000000)">
                <g id="Page-1">
                    <path d="M10.2915,16.5 C10.2915,17.5 9.2185,18.5 7.9995,18.5 C6.7815,18.5 5.7085,17.5 5.7085,16.5" id="Stroke-1" stroke="#1350A8"></path>
                    <path d="M2.5,13.5 L7.5,13.5" id="Stroke-3" stroke="#1350A8"></path>
                    <path d="M9.5,13.5 L10.5,13.5" id="Stroke-5" stroke="#1350A8"></path>
                    <path d="M8,2.5 C-0.571,2.5 4.786,13.5 0.5,16.5 L15.5,16.5 C11.214,13.5 16.571,2.5 8,2.5" id="Stroke-7" stroke="#3F8EFC"></path>
                    <path d="M9,1.5 C9,2.052 8.552,2.5 8,2.5 C7.448,2.5 7,2.052 7,1.5 C7,0.948 7.448,0.5 8,0.5 C8.552,0.5 9,0.948 9,1.5 Z" id="Stroke-9" stroke="#3F8EFC"></path>
                </g>
            </g>
        </g>
    </g>
</svg>