<?xml version="1.0" encoding="UTF-8"?>
<svg width="23px" height="21px" viewBox="0 0 23 21" version="1.1" xmlns="http://www.w3.org/2000/svg" xmlns:xlink="http://www.w3.org/1999/xlink">
    <!-- Generator: Sketch 48 (47235) - http://www.bohemiancoding.com/sketch -->
    <title>ICO/Timeline Copy 2</title>
    <desc>Created with Sketch.</desc>
    <defs></defs>
    <g id="Menu" stroke="none" stroke-width="1" fill="none" fill-rule="evenodd" transform="translate(-24.000000, -359.000000)" stroke-linecap="round" stroke-linejoin="round">
        <g id="ICO/Studies" transform="translate(24.000000, 358.000000)">
            <g id="Page-1" transform="translate(1.000000, 1.000000)">
                <path d="M7.4551,15.6826 L3.4431,19.6946 C2.7691,20.3686 1.6781,20.3686 1.0051,19.6946 C0.3311,19.0216 0.3311,17.9306 1.0051,17.2566 L5.0171,13.2446" id="Stroke-1" stroke="#3F8EFC"></path>
                <path d="M6.0586,17.079 L4.1076,15.129" id="Stroke-3" stroke="#3F8EFC"></path>
                <path d="M7.5889,15.5424 C5.4819,14.0394 4.1079,11.5754 4.1079,8.7894 C4.1079,4.2114 7.8189,0.5004 12.3979,0.5004 C16.9759,0.5004 20.6879,4.2114 20.6879,8.7894 C20.6879,13.3674 16.9759,17.0794 12.3979,17.0794 C10.6049,17.0794 8.9449,16.5104 7.5889,15.5424" id="Stroke-5" stroke="#3F8EFC"></path>
                <path d="M16.898,5.0493 C17.742,6.0633 18.249,7.3673 18.249,8.7893 C18.249,12.0213 15.629,14.6413 12.398,14.6413 C9.166,14.6413 6.546,12.0213 6.546,8.7893 C6.546,5.5583 9.166,2.9383 12.398,2.9383" id="Stroke-7" stroke="#1350A8"></path>
                <path d="M14.4703,3.3159 C14.7813,3.4329 15.0783,3.5769 15.3613,3.7429" id="Stroke-9" stroke="#1350A8"></path>
            </g>
        </g>
    </g>
</svg>