<?xml version="1.0" encoding="UTF-8"?>
<svg width="24px" height="20px" viewBox="0 0 24 20" version="1.1" xmlns="http://www.w3.org/2000/svg" xmlns:xlink="http://www.w3.org/1999/xlink">
    <!-- Generator: Sketch 48 (47235) - http://www.bohemiancoding.com/sketch -->
    <title>ICO/Timeline Copy 3</title>
    <desc>Created with Sketch.</desc>
    <defs></defs>
    <g id="Menu" stroke="none" stroke-width="1" fill="none" fill-rule="evenodd" transform="translate(-24.000000, -440.000000)" stroke-linecap="round" stroke-linejoin="round">
        <g id="ICO/Suggestions" transform="translate(24.000000, 438.000000)">
            <g id="Page-1" transform="translate(0.000000, 2.000000)">
                <path d="M9,2.0449 C8.24,2.5289 7.576,3.1109 7.037,3.7679" id="Stroke-1" stroke="#1350A8"></path>
                <path d="M11.3223,0.9751 C11.0923,1.0471 10.8673,1.1251 10.6463,1.2121" id="Stroke-3" stroke="#1350A8"></path>
                <path d="M21.5,12.5 C22.743,11.229 23.5,9.67 23.5,7.912 C23.5,3.818 19.471,0.5 14.5,0.5 C14.038,0.5 13.584,0.529 13.142,0.584" id="Stroke-5" stroke="#1350A8"></path>
                <path d="M17.0088,14.9971 C17.5268,14.8631 18.0258,14.6941 18.4998,14.5001 L22.4998,16.5001 L21.4998,12.5001" id="Stroke-7" stroke="#1350A8"></path>
                <path d="M5.5,17.5 L1.5,19.5 L2.5,15.5 C1.257,14.229 0.5,12.67 0.5,10.912 C0.5,6.818 4.529,3.5 9.5,3.5 C14.471,3.5 18.5,6.818 18.5,10.912 C18.5,15.005 14.471,18.324 9.5,18.324 C8.063,18.324 6.705,17.993 5.5,17.5" id="Stroke-9" stroke="#3F8EFC"></path>
                <path d="M6.5,12 C6.5,12.276 6.276,12.5 6,12.5 C5.724,12.5 5.5,12.276 5.5,12 C5.5,11.724 5.724,11.5 6,11.5 C6.276,11.5 6.5,11.724 6.5,12 Z" id="Stroke-11" stroke="#3F8EFC"></path>
                <path d="M10,12 C10,12.276 9.776,12.5 9.5,12.5 C9.224,12.5 9,12.276 9,12 C9,11.724 9.224,11.5 9.5,11.5 C9.776,11.5 10,11.724 10,12 Z" id="Stroke-13" stroke="#3F8EFC"></path>
                <path d="M13.5,12 C13.5,12.276 13.276,12.5 13,12.5 C12.724,12.5 12.5,12.276 12.5,12 C12.5,11.724 12.724,11.5 13,11.5 C13.276,11.5 13.5,11.724 13.5,12 Z" id="Stroke-15" stroke="#3F8EFC"></path>
            </g>
        </g>
    </g>
</svg>