<svg xmlns="http://www.w3.org/2000/svg" xmlns:xlink="http://www.w3.org/1999/xlink"><symbol viewBox="0 0 20 20" id="apps"><g fill="none" fill-rule="evenodd" stroke-linecap="round" stroke-linejoin="round"><g stroke="#3F8EFC"><path d="M.5 7.5h7v-7h-7zM12.5 7.5h7v-7h-7zM.5 19.5h7v-7h-7z"/></g><path d="M16.5 12.5h1M14.5 12.5h-2v7h7v-7" stroke="#1350A8"/></g></symbol><symbol viewBox="0 0 14 6" id="arrow-down"><path d="M13 0L7 6 1 0" stroke="#FFF" fill="none" fill-rule="evenodd" stroke-linecap="round" stroke-linejoin="round"/></symbol><symbol viewBox="0 0 20 20" id="close"><g fill="#3F8EFC" fill-rule="evenodd"><path d="M3.636 2.222l14.142 14.142-1.414 1.414L2.222 3.636z"/><path d="M2.222 16.364L16.364 2.222l1.414 1.414L3.636 17.778z"/></g></symbol><symbol viewBox="0 0 20 20" id="close-white"><g fill="#FFF" fill-rule="evenodd"><path d="M3.636 2.222l14.142 14.142-1.414 1.414L2.222 3.636z"/><path d="M2.222 16.364L16.364 2.222l1.414 1.414L3.636 17.778z"/></g></symbol><symbol viewBox="0 0 15 16" id="edit"><g fill="none" fill-rule="evenodd" stroke-linecap="round" stroke-linejoin="round"><path d="M9.521 3.07l1.281-1.281a.986.986 0 0 1 1.396 0l1.604 1.604a.986.986 0 0 1 0 1.396L4.5 14.09l-4 1 1-4L8 4.59M9.5 3.09l3 3" stroke="#333"/><path d="M3.5 12.09l6-6" stroke="#3F8EFC"/></g></symbol><symbol viewBox="0 0 20 14" id="hamburger"><g fill="#3F8EFC" fill-rule="evenodd"><path d="M0 6h20v2H0zM0 0h20v2H0zM0 12h20v2H0z"/></g></symbol><symbol viewBox="0 0 20 14" id="hamburger-white"><g fill="#FFF" fill-rule="evenodd"><path d="M0 6h20v2H0zM0 0h20v2H0zM0 12h20v2H0z"/></g></symbol><symbol viewBox="0 0 16 19" id="notifications"><g fill="none" fill-rule="evenodd" stroke-linecap="round" stroke-linejoin="round"><path d="M10.291 16.5c0 1-1.072 2-2.292 2-1.217 0-2.29-1-2.29-2M2.5 13.5h5M9.5 13.5h1" stroke="#1350A8"/><path d="M8 2.5c-8.571 0-3.214 11-7.5 14h15c-4.286-3 1.071-14-7.5-14" stroke="#3F8EFC"/><path d="M9 1.5a1 1 0 1 1-2 0 1 1 0 0 1 2 0z" stroke="#3F8EFC"/></g></symbol><symbol viewBox="0 0 16 21" id="notifications-white"><g fill="none" fill-rule="evenodd"><path d="M2.78 10.434c0 3.24-.76 5.514-2.28 6.823h15c-1.52-1.309-2.28-3.583-2.28-6.823 0-4.86-.258-6.934-5.22-6.934s-5.22 3.93-5.22 6.934z" stroke="#FFF" stroke-width=".938" fill="#FFF" stroke-linecap="round" stroke-linejoin="round"/><path d="M2.643 14.057h8.942" stroke="#3F8EFC" stroke-width="1.4" stroke-linecap="round"/><path d="M2.78 10.434c0 3.24-.76 5.514-2.28 6.823h15c-1.52-1.309-2.28-3.583-2.28-6.823 0-4.86-.258-6.934-5.22-6.934s-5.22 3.93-5.22 6.934z" stroke="#FFF" stroke-width=".938" stroke-linecap="round" stroke-linejoin="round"/><path d="M8 3.5a1.071 1.071 0 1 0 0-2.143A1.071 1.071 0 0 0 8 3.5z" stroke="#FFF" stroke-width=".938" fill="#FFF" stroke-linecap="round" stroke-linejoin="round"/><path d="M5.857 17.429a2.143 2.143 0 0 0 4.286 0" stroke="#FFF" stroke-width=".938" fill="#FFF"/></g></symbol><symbol viewBox="0 0 21 19" id="notifications-with-badge"><g fill="none" fill-rule="evenodd"><g stroke-linecap="round" stroke-linejoin="round"><path d="M10.291 16.5c0 1-1.072 2-2.292 2-1.217 0-2.29-1-2.29-2M2.5 13.5h5M9.5 13.5h1" stroke="#1350A8"/><path d="M8 2.5c-8.571 0-3.214 11-7.5 14h15c-4.286-3 1.071-14-7.5-14" stroke="#3F8EFC"/><path d="M9 1.5a1 1 0 1 1-2 0 1 1 0 0 1 2 0z" stroke="#3F8EFC"/></g><g transform="translate(9 1)"><circle fill="#F5515F" cx="5.667" cy="5.8" r="5.667"/><text font-family="Roboto-Medium, Roboto" font-size="6.8" font-weight="400" fill="#FFF"><tspan x="3.609" y="8">3 </tspan></text></g></g></symbol><symbol viewBox="0 0 13 14" id="sign-out"><g fill="none" fill-rule="evenodd" stroke-linecap="round" stroke-linejoin="round"><path d="M3.97 3.222a5.5 5.5 0 1 0 6.104.031" stroke="#333"/><path d="M7 7.028V.5" stroke="#3F8EFC"/></g></symbol><symbol viewBox="0 0 23 21" id="studies"><g fill="none" fill-rule="evenodd" stroke-linecap="round" stroke-linejoin="round"><path d="M8.455 15.683l-4.012 4.012a1.723 1.723 0 0 1-2.438 0 1.723 1.723 0 0 1 0-2.438l4.012-4.012M7.059 17.079l-1.951-1.95" stroke="#3F8EFC"/><path d="M8.589 15.542A8.29 8.29 0 0 1 13.398.5a8.29 8.29 0 1 1-4.81 15.042" stroke="#3F8EFC"/><path d="M17.898 5.05a5.852 5.852 0 1 1-4.5-2.111M15.47 3.316c.311.117.608.26.891.427" stroke="#1350A8"/></g></symbol><symbol viewBox="0 0 24 20" id="suggestions"><g fill="none" fill-rule="evenodd" stroke-linecap="round" stroke-linejoin="round"><path d="M9 2.045a8.295 8.295 0 0 0-1.963 1.723M11.322.975c-.23.072-.455.15-.676.237M21.5 12.5c1.243-1.271 2-2.83 2-4.588C23.5 3.818 19.471.5 14.5.5c-.462 0-.916.029-1.358.084M17.009 14.997a11.636 11.636 0 0 0 1.49-.497l4 2-1-4" stroke="#1350A8"/><path d="M5.5 17.5l-4 2 1-4c-1.243-1.271-2-2.83-2-4.588C.5 6.818 4.529 3.5 9.5 3.5s9 3.318 9 7.412c0 4.093-4.029 7.412-9 7.412-1.437 0-2.795-.331-4-.824" stroke="#3F8EFC"/><path d="M6.5 12a.5.5 0 1 1-1 0 .5.5 0 0 1 1 0zM10 12a.5.5 0 1 1-1 0 .5.5 0 0 1 1 0zM13.5 12a.5.5 0 1 1-1 0 .5.5 0 0 1 1 0z" stroke="#3F8EFC"/></g></symbol><symbol viewBox="0 0 24 19" id="timeline"><g fill="none" fill-rule="evenodd" stroke-linecap="round" stroke-linejoin="round"><path stroke="#3F8EFC" d="M.5 4.5h13v-4H.5z"/><path stroke="#1350A8" d="M19.5 7.5v4H.5v-4h14"/><path stroke="#3F8EFC" d="M.5 18.5h23v-4H.5z"/><path d="M16.5 7.5h1" stroke="#1350A8"/></g></symbol></svg>