<?xml version="1.0" encoding="UTF-8"?>
<svg width="61px" height="38px" viewBox="0 0 61 38" version="1.1" xmlns="http://www.w3.org/2000/svg" xmlns:xlink="http://www.w3.org/1999/xlink">
    <!-- Generator: Sketch 48.1 (47250) - http://www.bohemiancoding.com/sketch -->
    <title>Fill 1</title>
    <desc>Created with Sketch.</desc>
    <defs></defs>
    <g id="Login---alt---step-1---dropdown-opened" stroke="none" stroke-width="1" fill="none" fill-rule="evenodd" transform="translate(-609.000000, -86.000000)">
        <path d="M653.944446,88.914444 C655.733282,91.3340752 657.37202,95.0171965 658.123464,96.6454839 C659.006007,98.556869 658.061714,100.601253 655.257336,99.6256107 C653.243352,99.0461152 651.477316,100.025558 650.746771,101.970192 C650.408574,102.868886 646.824252,110.627475 643.866925,117.390473 C640.104004,125.991706 632.123116,126.346053 628.209146,117.583321 C625.850315,112.302312 623.676732,107.950396 622.413241,104.997819 C621.24665,102.27229 619.725712,102.25614 618.326373,102.774836 C616.756035,103.357182 615.205647,101.847643 615.629344,100.197506 C616.15849,98.1388723 616.996384,95.601442 618.207624,93.6929068 C618.923919,92.383817 620.233008,91.477524 621.767246,91.4100746 C622.969937,91.355925 624.079528,91.8271213 624.900322,92.6317651 C626.225562,93.7860061 630.976475,102.791936 633.919552,106.657456 C634.669096,107.641648 635.560189,107.618849 636.368633,105.698914 C638.312318,101.078149 642.663284,91.9477704 643.266529,90.1836341 L643.268429,90.1845841 C644.069273,87.8362023 646.143107,86.1176657 648.645388,86.0055666 C650.84747,85.9086673 652.821555,87.0847582 653.944446,88.914444 Z M613.822078,109.578588 C615.573865,110.311033 616.382308,112.429516 615.627064,114.309552 C614.87182,116.190537 612.839786,117.12153 611.087999,116.389085 C609.336213,115.656641 608.527769,113.539108 609.283013,111.658122 C610.038258,109.778087 612.070292,108.846144 613.822078,109.578588 Z M669.334517,116.782382 C669.359217,119.106064 667.716679,121.103899 665.488947,121.348997 C664.133307,121.497196 662.856517,120.96425 661.958774,120.013307 C661.917924,119.973408 661.883725,119.927808 661.845725,119.885058 C661.796325,119.828059 661.745026,119.772959 661.698476,119.71501 C661.664276,119.67036 661.631977,119.62381 661.599677,119.577261 C661.24628,119.097514 660.981232,118.539869 660.829233,117.927123 C660.379886,116.436585 660.488186,114.697149 660.611685,113.160061 C660.720934,111.794921 661.289029,110.486781 662.656069,110.030785 C664.183657,109.518739 665.518396,110.505781 666.551988,111.546973 C667.427882,112.431416 668.233475,113.431758 668.774971,114.56795 C669.054269,115.093296 669.240467,115.683241 669.307917,116.317836 C669.317417,116.406185 669.318367,116.493585 669.323117,116.581934 C669.326917,116.648433 669.334517,116.715883 669.334517,116.782382 Z" id="Fill-1" fill="#FFFFFF"></path>
    </g>
</svg>