<?xml version="1.0" encoding="utf-8"?>
<!-- Generator: Adobe Illustrator 21.1.0, SVG Export Plug-In . SVG Version: 6.00 Build 0)  -->
<svg version="1.1" id="Layer_1" xmlns="http://www.w3.org/2000/svg" xmlns:xlink="http://www.w3.org/1999/xlink" x="0px" y="0px"
	 viewBox="0 0 413.3 62.9" style="enable-background:new 0 0 413.3 62.9;" xml:space="preserve">
<style type="text/css">
	.st0{fill:#FFFFFF;}
</style>
<title>MIDA_LogoWEB</title>
<g>
	<path class="st0" d="M208.8,4.9h5.9c0.6,0,1.1,0.5,1.1,1.1v44.6c0,0.6-0.5,1.1-1.1,1.1l0,0h-5.9c-0.6,0-1.1-0.5-1.1-1.1V6
		C207.7,5.4,208.2,4.9,208.8,4.9z"/>
	<path class="st0" d="M364.2,4.9h-37.1c-0.6,0-1.1,0.5-1.1,1.1v5.7c0,0.6,0.5,1.1,1.1,1.1h14.5v37.8c0,0.6,0.5,1.1,1.1,1.1l0,0h5.9
		c0.6,0,1.1-0.5,1.1-1.1V12.8h14.5c0.6,0,1.1-0.5,1.1-1.1V6C365.3,5.4,364.9,4.9,364.2,4.9z"/>
	<path class="st0" d="M250,4.9l-17.5,0c-0.6,0-1.1,0.5-1.1,1.1v44.6c0,0.6,0.5,1.1,1.1,1.1l17.5,0c14-1.2,20.9-8.8,20.9-23.4
		S264,6.1,250,4.9z M259,40.1c-3.2,3.1-8.2,3.6-15.2,3.5h-4.3V13h4.3c7.1-0.1,12.1,0.4,15.2,3.5c2.4,2.4,3.6,6.2,3.6,11.8
		C262.6,33.8,261.4,37.7,259,40.1z"/>
	<path class="st0" d="M182.4,4.9h-7.5c-0.5,0-0.9,0.3-1.1,0.7l-12,33.2l-12-33.2c-0.2-0.4-0.6-0.7-1.1-0.7h-7.5
		c-0.5,0-0.9,0.3-1,0.8l-14,45.2c-0.1,0.3,0.1,0.7,0.4,0.8c0.1,0,0.1,0,0.2,0h7.7c0.5,0,0.9-0.3,1-0.8l9.8-31.6l12,31.7
		c0.2,0.4,0.6,0.7,1,0.7h6.8c0.5,0,0.9-0.3,1-0.7l12-31.7l9.8,31.6c0.1,0.5,0.6,0.8,1,0.8h8.5l-14.2-46
		C183.3,5.2,182.9,4.9,182.4,4.9z"/>
	<path class="st0" d="M413.3,50.8L396.4,5.6c-0.2-0.4-0.6-0.7-1-0.7h-10c-0.5,0-0.9,0.3-1,0.7l-16.8,45.2c-0.1,0.3,0,0.7,0.4,0.8
		c0.1,0,0.1,0,0.2,0h7.2c0.5,0,0.9-0.3,1-0.7l14-38l7.4,20.1h-7.6c-2.2,0-4.1,1.8-4.2,4c-0.1,2.2,1.6,4,3.8,4c0.1,0,0.1,0,0.2,0
		h10.8l3.6,9.8c0.2,0.4,0.6,0.7,1,0.7h7.2c0.3,0,0.6-0.3,0.6-0.6C413.3,51,413.3,50.9,413.3,50.8z"/>
	<path class="st0" d="M323.4,50.8L306.6,5.6c-0.2-0.4-0.6-0.7-1-0.7h-10c-0.5,0-0.9,0.3-1,0.7l-16.8,45.2c-0.1,0.3,0,0.7,0.4,0.8
		c0.1,0,0.1,0,0.2,0h7.2c0.5,0,0.9-0.3,1-0.7l14-38l7.4,20.1h-7.6c-2.2,0-4.1,1.8-4.2,4c-0.1,2.2,1.6,4,3.8,4c0.1,0,0.1,0,0.2,0H311
		l3.6,9.8c0.2,0.4,0.6,0.7,1,0.7h7.2c0.3,0,0.6-0.3,0.6-0.6C323.4,51,323.4,50.9,323.4,50.8z"/>
</g>
<g>
	<path class="st0" d="M74.4,4.8c-1.8-3.1-5.2-4.9-8.8-4.8c-4.1,0.2-7.6,3-8.9,6.9l0,0c-1,2.9-8.2,18-11.4,25.7
		c-1.3,3.2-2.8,3.2-4.1,1.6C36.4,27.8,28.5,12.9,26.3,11c-1.4-1.4-3.3-2.1-5.2-2c-2.5,0.1-4.7,1.6-5.9,3.8c-1.9,3.4-3.4,7-4.3,10.8
		c-0.5,1.9,0.6,3.8,2.4,4.3c0.7,0.2,1.4,0.2,2.1,0c2.3-0.9,4.8-0.8,6.8,3.7c2.1,4.9,5.7,12.1,9.6,20.8c6.5,14.5,19.7,13.9,25.9-0.3
		c4.9-11.2,10.8-24,11.4-25.5c1-3.1,4.3-4.9,7.4-3.9c0,0,0,0,0.1,0c4.6,1.6,6.2-1.8,4.7-4.9C80.1,14.9,77.4,8.8,74.4,4.8z"/>
	<path class="st0" d="M8,39c-3-1.1-6.3,0.4-7.5,3.3c0,0,0,0.1,0,0.1c-1.3,3,0,6.5,3,7.8c3,1.1,6.3-0.4,7.5-3.3c0,0,0-0.1,0-0.1
		C12.3,43.9,10.9,40.4,8,39z"/>
	<path class="st0" d="M99.9,51c0-0.1,0-0.2,0-0.3c0-0.1,0-0.3,0-0.4c-0.1-1-0.4-2-0.9-2.9c-0.9-1.9-2.2-3.6-3.7-5
		c-1.7-1.7-3.9-3.4-6.4-2.5c-2.3,0.8-3.2,2.9-3.4,5.2c-0.4,2.6-0.2,5.3,0.4,7.9c0.2,1,0.7,1.9,1.3,2.7c0.1,0.1,0.1,0.2,0.2,0.2
		c0.1,0.1,0.2,0.2,0.2,0.3c0.1,0.1,0.1,0.1,0.2,0.2c1.5,1.6,3.7,2.4,5.8,2.2C97.3,58,100,54.7,99.9,51z"/>
</g>
</svg>
