<?xml version="1.0" ?><!DOCTYPE svg  PUBLIC '-//W3C//DTD SVG 1.1//EN'  'http://www.w3.org/Graphics/SVG/1.1/DTD/svg11.dtd'><svg enable-background="new 0 0 100 100" height="100px" id="Layer_1" version="1.1" viewBox="0 0 100 100" width="100px" xml:space="preserve" xmlns="http://www.w3.org/2000/svg" xmlns:xlink="http://www.w3.org/1999/xlink"><g><g><g><g/></g><g/></g></g><g><path d="M14,42.5c3.584,0,6.5-2.916,6.5-6.5s-2.916-6.5-6.5-6.5S7.5,32.416,7.5,36S10.416,42.5,14,42.5z M14,31.5   c2.481,0,4.5,2.019,4.5,4.5s-2.019,4.5-4.5,4.5S9.5,38.481,9.5,36S11.519,31.5,14,31.5z" fill="#231F20"/><path d="M27,45v-8h-0.051C26.975,36.669,27,36.337,27,36c0-7.168-5.832-13-13-13C7.169,23,1.564,28.298,1.051,35H1   v22.857c0,6.903,5.299,12.567,12,13.086V71h85V45H27z M14,27c4.963,0,9,4.038,9,9s-4.037,9-9,9s-9-4.038-9-9S9.037,27,14,27z    M5,57.857V45.359c1.404,1.35,3.105,2.39,5,3.004V52h2v-3.17c0.33,0.051,0.662,0.094,1,0.12V49h13v3h2v-3h14v3h2v-3h14v3h2v-3h14v3   h2v-3h6v18h-6v-5h-2v5h-6v-3h-2v3h-6v-5h-2v5h-6v-3h-2v3h-6v-5h-2v5h-6v-3h-2v3h-6v-5h-2v5h-6v-3h-2v3h-4v-0.005   c-0.688,0-1.355-0.086-2-0.235V62h-2v4.031C7.041,64.532,5,61.436,5,57.857z M94,67H84V49h10V67z" fill="#231F20"/><path d="M89,61c1.654,0,3-1.346,3-3s-1.346-3-3-3s-3,1.346-3,3S87.346,61,89,61z M89,57c0.551,0,1,0.449,1,1   s-0.449,1-1,1s-1-0.449-1-1S88.449,57,89,57z" fill="#231F20"/></g></svg>